packet|codec_type=audio|stream_index=0|pts=0|pts_time=0.000000|dts=0|dts_time=0.000000|duration=4096|duration_time=0.092880|size=744|pos=56|flags=K__
packet|codec_type=audio|stream_index=0|pts=4096|pts_time=0.092880|dts=4096|dts_time=0.092880|duration=4096|duration_time=0.092880|size=744|pos=800|flags=K__
frame|media_type=audio|stream_index=0|key_frame=1|pts=4096|pts_time=0.092880|pkt_dts=4096|pkt_dts_time=0.092880|best_effort_timestamp=4096|best_effort_timestamp_time=0.092880|duration=4096|duration_time=0.092880|pkt_pos=800|pkt_size=744|sample_fmt=fltp|nb_samples=2048|channels=2|channel_layout=unknown
frame|media_type=audio|stream_index=0|key_frame=1|pts=N/A|pts_time=N/A|pkt_dts=N/A|pkt_dts_time=N/A|best_effort_timestamp=N/A|best_effort_timestamp_time=N/A|duration=4096|duration_time=0.092880|pkt_pos=800|pkt_size=744|sample_fmt=fltp|nb_samples=2048|channels=2|channel_layout=unknown
packet|codec_type=audio|stream_index=0|pts=8192|pts_time=0.185760|dts=8192|dts_time=0.185760|duration=4096|duration_time=0.092880|size=744|pos=1544|flags=K__
frame|media_type=audio|stream_index=0|key_frame=1|pts=8192|pts_time=0.185760|pkt_dts=8192|pkt_dts_time=0.185760|best_effort_timestamp=8192|best_effort_timestamp_time=0.185760|duration=4096|duration_time=0.092880|pkt_pos=1544|pkt_size=744|sample_fmt=fltp|nb_samples=2048|channels=2|channel_layout=unknown
frame|media_type=audio|stream_index=0|key_frame=1|pts=N/A|pts_time=N/A|pkt_dts=N/A|pkt_dts_time=N/A|best_effort_timestamp=N/A|best_effort_timestamp_time=N/A|duration=4096|duration_time=0.092880|pkt_pos=1544|pkt_size=744|sample_fmt=fltp|nb_samples=2048|channels=2|channel_layout=unknown
packet|codec_type=audio|stream_index=0|pts=12288|pts_time=0.278639|dts=12288|dts_time=0.278639|duration=4096|duration_time=0.092880|size=744|pos=2288|flags=K__
frame|media_type=audio|stream_index=0|key_frame=1|pts=12288|pts_time=0.278639|pkt_dts=12288|pkt_dts_time=0.278639|best_effort_timestamp=12288|best_effort_timestamp_time=0.278639|duration=4096|duration_time=0.092880|pkt_pos=2288|pkt_size=744|sample_fmt=fltp|nb_samples=2048|channels=2|channel_layout=unknown
frame|media_type=audio|stream_index=0|key_frame=1|pts=N/A|pts_time=N/A|pkt_dts=N/A|pkt_dts_time=N/A|best_effort_timestamp=N/A|best_effort_timestamp_time=N/A|duration=4096|duration_time=0.092880|pkt_pos=2288|pkt_size=744|sample_fmt=fltp|nb_samples=2048|channels=2|channel_layout=unknown
packet|codec_type=audio|stream_index=0|pts=16384|pts_time=0.371519|dts=16384|dts_time=0.371519|duration=4096|duration_time=0.092880|size=744|pos=3032|flags=K__
frame|media_type=audio|stream_index=0|key_frame=1|pts=16384|pts_time=0.371519|pkt_dts=16384|pkt_dts_time=0.371519|best_effort_timestamp=16384|best_effort_timestamp_time=0.371519|duration=4096|duration_time=0.092880|pkt_pos=3032|pkt_size=744|sample_fmt=fltp|nb_samples=2048|channels=2|channel_layout=unknown
frame|media_type=audio|stream_index=0|key_frame=1|pts=N/A|pts_time=N/A|pkt_dts=N/A|pkt_dts_time=N/A|best_effort_timestamp=N/A|best_effort_timestamp_time=N/A|duration=4096|duration_time=0.092880|pkt_pos=3032|pkt_size=744|sample_fmt=fltp|nb_samples=2048|channels=2|channel_layout=unknown
packet|codec_type=audio|stream_index=0|pts=20480|pts_time=0.464399|dts=20480|dts_time=0.464399|duration=4096|duration_time=0.092880|size=744|pos=3776|flags=K__
frame|media_type=audio|stream_index=0|key_frame=1|pts=20480|pts_time=0.464399|pkt_dts=20480|pkt_dts_time=0.464399|best_effort_timestamp=20480|best_effort_timestamp_time=0.464399|duration=4096|duration_time=0.092880|pkt_pos=3776|pkt_size=744|sample_fmt=fltp|nb_samples=2048|channels=2|channel_layout=unknown
frame|media_type=audio|stream_index=0|key_frame=1|pts=N/A|pts_time=N/A|pkt_dts=N/A|pkt_dts_time=N/A|best_effort_timestamp=N/A|best_effort_timestamp_time=N/A|duration=4096|duration_time=0.092880|pkt_pos=3776|pkt_size=744|sample_fmt=fltp|nb_samples=2048|channels=2|channel_layout=unknown
packet|codec_type=audio|stream_index=0|pts=24576|pts_time=0.557279|dts=24576|dts_time=0.557279|duration=4096|duration_time=0.092880|size=744|pos=4520|flags=K__
frame|media_type=audio|stream_index=0|key_frame=1|pts=24576|pts_time=0.557279|pkt_dts=24576|pkt_dts_time=0.557279|best_effort_timestamp=24576|best_effort_timestamp_time=0.557279|duration=4096|duration_time=0.092880|pkt_pos=4520|pkt_size=744|sample_fmt=fltp|nb_samples=2048|channels=2|channel_layout=unknown
frame|media_type=audio|stream_index=0|key_frame=1|pts=N/A|pts_time=N/A|pkt_dts=N/A|pkt_dts_time=N/A|best_effort_timestamp=N/A|best_effort_timestamp_time=N/A|duration=4096|duration_time=0.092880|pkt_pos=4520|pkt_size=744|sample_fmt=fltp|nb_samples=2048|channels=2|channel_layout=unknown
packet|codec_type=audio|stream_index=0|pts=28672|pts_time=0.650159|dts=28672|dts_time=0.650159|duration=4096|duration_time=0.092880|size=744|pos=5264|flags=K__
frame|media_type=audio|stream_index=0|key_frame=1|pts=28672|pts_time=0.650159|pkt_dts=28672|pkt_dts_time=0.650159|best_effort_timestamp=28672|best_effort_timestamp_time=0.650159|duration=4096|duration_time=0.092880|pkt_pos=5264|pkt_size=744|sample_fmt=fltp|nb_samples=2048|channels=2|channel_layout=unknown
frame|media_type=audio|stream_index=0|key_frame=1|pts=N/A|pts_time=N/A|pkt_dts=N/A|pkt_dts_time=N/A|best_effort_timestamp=N/A|best_effort_timestamp_time=N/A|duration=4096|duration_time=0.092880|pkt_pos=5264|pkt_size=744|sample_fmt=fltp|nb_samples=2048|channels=2|channel_layout=unknown
packet|codec_type=audio|stream_index=0|pts=32768|pts_time=0.743039|dts=32768|dts_time=0.743039|duration=4096|duration_time=0.092880|size=744|pos=6008|flags=K__
frame|media_type=audio|stream_index=0|key_frame=1|pts=32768|pts_time=0.743039|pkt_dts=32768|pkt_dts_time=0.743039|best_effort_timestamp=32768|best_effort_timestamp_time=0.743039|duration=4096|duration_time=0.092880|pkt_pos=6008|pkt_size=744|sample_fmt=fltp|nb_samples=2048|channels=2|channel_layout=unknown
frame|media_type=audio|stream_index=0|key_frame=1|pts=N/A|pts_time=N/A|pkt_dts=N/A|pkt_dts_time=N/A|best_effort_timestamp=N/A|best_effort_timestamp_time=N/A|duration=4096|duration_time=0.092880|pkt_pos=6008|pkt_size=744|sample_fmt=fltp|nb_samples=2048|channels=2|channel_layout=unknown
packet|codec_type=audio|stream_index=0|pts=36864|pts_time=0.835918|dts=36864|dts_time=0.835918|duration=4096|duration_time=0.092880|size=744|pos=6752|flags=K__
frame|media_type=audio|stream_index=0|key_frame=1|pts=36864|pts_time=0.835918|pkt_dts=36864|pkt_dts_time=0.835918|best_effort_timestamp=36864|best_effort_timestamp_time=0.835918|duration=4096|duration_time=0.092880|pkt_pos=6752|pkt_size=744|sample_fmt=fltp|nb_samples=2048|channels=2|channel_layout=unknown
frame|media_type=audio|stream_index=0|key_frame=1|pts=N/A|pts_time=N/A|pkt_dts=N/A|pkt_dts_time=N/A|best_effort_timestamp=N/A|best_effort_timestamp_time=N/A|duration=4096|duration_time=0.092880|pkt_pos=6752|pkt_size=744|sample_fmt=fltp|nb_samples=2048|channels=2|channel_layout=unknown
packet|codec_type=audio|stream_index=0|pts=40960|pts_time=0.928798|dts=40960|dts_time=0.928798|duration=4096|duration_time=0.092880|size=744|pos=7496|flags=K__
frame|media_type=audio|stream_index=0|key_frame=1|pts=40960|pts_time=0.928798|pkt_dts=40960|pkt_dts_time=0.928798|best_effort_timestamp=40960|best_effort_timestamp_time=0.928798|duration=4096|duration_time=0.092880|pkt_pos=7496|pkt_size=744|sample_fmt=fltp|nb_samples=2048|channels=2|channel_layout=unknown
frame|media_type=audio|stream_index=0|key_frame=1|pts=N/A|pts_time=N/A|pkt_dts=N/A|pkt_dts_time=N/A|best_effort_timestamp=N/A|best_effort_timestamp_time=N/A|duration=4096|duration_time=0.092880|pkt_pos=7496|pkt_size=744|sample_fmt=fltp|nb_samples=2048|channels=2|channel_layout=unknown
packet|codec_type=audio|stream_index=0|pts=45056|pts_time=1.021678|dts=45056|dts_time=1.021678|duration=4096|duration_time=0.092880|size=744|pos=8240|flags=K__
frame|media_type=audio|stream_index=0|key_frame=1|pts=45056|pts_time=1.021678|pkt_dts=45056|pkt_dts_time=1.021678|best_effort_timestamp=45056|best_effort_timestamp_time=1.021678|duration=4096|duration_time=0.092880|pkt_pos=8240|pkt_size=744|sample_fmt=fltp|nb_samples=2048|channels=2|channel_layout=unknown
frame|media_type=audio|stream_index=0|key_frame=1|pts=N/A|pts_time=N/A|pkt_dts=N/A|pkt_dts_time=N/A|best_effort_timestamp=N/A|best_effort_timestamp_time=N/A|duration=4096|duration_time=0.092880|pkt_pos=8240|pkt_size=744|sample_fmt=fltp|nb_samples=2048|channels=2|channel_layout=unknown
packet|codec_type=audio|stream_index=0|pts=49152|pts_time=1.114558|dts=49152|dts_time=1.114558|duration=4096|duration_time=0.092880|size=744|pos=8984|flags=K__
frame|media_type=audio|stream_index=0|key_frame=1|pts=49152|pts_time=1.114558|pkt_dts=49152|pkt_dts_time=1.114558|best_effort_timestamp=49152|best_effort_timestamp_time=1.114558|duration=4096|duration_time=0.092880|pkt_pos=8984|pkt_size=744|sample_fmt=fltp|nb_samples=2048|channels=2|channel_layout=unknown
frame|media_type=audio|stream_index=0|key_frame=1|pts=N/A|pts_time=N/A|pkt_dts=N/A|pkt_dts_time=N/A|best_effort_timestamp=N/A|best_effort_timestamp_time=N/A|duration=4096|duration_time=0.092880|pkt_pos=8984|pkt_size=744|sample_fmt=fltp|nb_samples=2048|channels=2|channel_layout=unknown
packet|codec_type=audio|stream_index=0|pts=53248|pts_time=1.207438|dts=53248|dts_time=1.207438|duration=4096|duration_time=0.092880|size=744|pos=9728|flags=K__
frame|media_type=audio|stream_index=0|key_frame=1|pts=53248|pts_time=1.207438|pkt_dts=53248|pkt_dts_time=1.207438|best_effort_timestamp=53248|best_effort_timestamp_time=1.207438|duration=4096|duration_time=0.092880|pkt_pos=9728|pkt_size=744|sample_fmt=fltp|nb_samples=2048|channels=2|channel_layout=unknown
frame|media_type=audio|stream_index=0|key_frame=1|pts=N/A|pts_time=N/A|pkt_dts=N/A|pkt_dts_time=N/A|best_effort_timestamp=N/A|best_effort_timestamp_time=N/A|duration=4096|duration_time=0.092880|pkt_pos=9728|pkt_size=744|sample_fmt=fltp|nb_samples=2048|channels=2|channel_layout=unknown
packet|codec_type=audio|stream_index=0|pts=57344|pts_time=1.300317|dts=57344|dts_time=1.300317|duration=4096|duration_time=0.092880|size=744|pos=10472|flags=K__
frame|media_type=audio|stream_index=0|key_frame=1|pts=57344|pts_time=1.300317|pkt_dts=57344|pkt_dts_time=1.300317|best_effort_timestamp=57344|best_effort_timestamp_time=1.300317|duration=4096|duration_time=0.092880|pkt_pos=10472|pkt_size=744|sample_fmt=fltp|nb_samples=2048|channels=2|channel_layout=unknown
frame|media_type=audio|stream_index=0|key_frame=1|pts=N/A|pts_time=N/A|pkt_dts=N/A|pkt_dts_time=N/A|best_effort_timestamp=N/A|best_effort_timestamp_time=N/A|duration=4096|duration_time=0.092880|pkt_pos=10472|pkt_size=744|sample_fmt=fltp|nb_samples=2048|channels=2|channel_layout=unknown
packet|codec_type=audio|stream_index=0|pts=61440|pts_time=1.393197|dts=61440|dts_time=1.393197|duration=4096|duration_time=0.092880|size=744|pos=11216|flags=K__
frame|media_type=audio|stream_index=0|key_frame=1|pts=61440|pts_time=1.393197|pkt_dts=61440|pkt_dts_time=1.393197|best_effort_timestamp=61440|best_effort_timestamp_time=1.393197|duration=4096|duration_time=0.092880|pkt_pos=11216|pkt_size=744|sample_fmt=fltp|nb_samples=2048|channels=2|channel_layout=unknown
frame|media_type=audio|stream_index=0|key_frame=1|pts=N/A|pts_time=N/A|pkt_dts=N/A|pkt_dts_time=N/A|best_effort_timestamp=N/A|best_effort_timestamp_time=N/A|duration=4096|duration_time=0.092880|pkt_pos=11216|pkt_size=744|sample_fmt=fltp|nb_samples=2048|channels=2|channel_layout=unknown
packet|codec_type=audio|stream_index=0|pts=65536|pts_time=1.486077|dts=65536|dts_time=1.486077|duration=4096|duration_time=0.092880|size=744|pos=11960|flags=K__
frame|media_type=audio|stream_index=0|key_frame=1|pts=65536|pts_time=1.486077|pkt_dts=65536|pkt_dts_time=1.486077|best_effort_timestamp=65536|best_effort_timestamp_time=1.486077|duration=4096|duration_time=0.092880|pkt_pos=11960|pkt_size=744|sample_fmt=fltp|nb_samples=2048|channels=2|channel_layout=unknown
frame|media_type=audio|stream_index=0|key_frame=1|pts=N/A|pts_time=N/A|pkt_dts=N/A|pkt_dts_time=N/A|best_effort_timestamp=N/A|best_effort_timestamp_time=N/A|duration=4096|duration_time=0.092880|pkt_pos=11960|pkt_size=744|sample_fmt=fltp|nb_samples=2048|channels=2|channel_layout=unknown
packet|codec_type=audio|stream_index=0|pts=69632|pts_time=1.578957|dts=69632|dts_time=1.578957|duration=4096|duration_time=0.092880|size=744|pos=12704|flags=K__
frame|media_type=audio|stream_index=0|key_frame=1|pts=69632|pts_time=1.578957|pkt_dts=69632|pkt_dts_time=1.578957|best_effort_timestamp=69632|best_effort_timestamp_time=1.578957|duration=4096|duration_time=0.092880|pkt_pos=12704|pkt_size=744|sample_fmt=fltp|nb_samples=2048|channels=2|channel_layout=unknown
frame|media_type=audio|stream_index=0|key_frame=1|pts=N/A|pts_time=N/A|pkt_dts=N/A|pkt_dts_time=N/A|best_effort_timestamp=N/A|best_effort_timestamp_time=N/A|duration=4096|duration_time=0.092880|pkt_pos=12704|pkt_size=744|sample_fmt=fltp|nb_samples=2048|channels=2|channel_layout=unknown
packet|codec_type=audio|stream_index=0|pts=73728|pts_time=1.671837|dts=73728|dts_time=1.671837|duration=4096|duration_time=0.092880|size=744|pos=13448|flags=K__
frame|media_type=audio|stream_index=0|key_frame=1|pts=73728|pts_time=1.671837|pkt_dts=73728|pkt_dts_time=1.671837|best_effort_timestamp=73728|best_effort_timestamp_time=1.671837|duration=4096|duration_time=0.092880|pkt_pos=13448|pkt_size=744|sample_fmt=fltp|nb_samples=2048|channels=2|channel_layout=unknown
frame|media_type=audio|stream_index=0|key_frame=1|pts=N/A|pts_time=N/A|pkt_dts=N/A|pkt_dts_time=N/A|best_effort_timestamp=N/A|best_effort_timestamp_time=N/A|duration=4096|duration_time=0.092880|pkt_pos=13448|pkt_size=744|sample_fmt=fltp|nb_samples=2048|channels=2|channel_layout=unknown
packet|codec_type=audio|stream_index=0|pts=77824|pts_time=1.764717|dts=77824|dts_time=1.764717|duration=4096|duration_time=0.092880|size=744|pos=14192|flags=K__
frame|media_type=audio|stream_index=0|key_frame=1|pts=77824|pts_time=1.764717|pkt_dts=77824|pkt_dts_time=1.764717|best_effort_timestamp=77824|best_effort_timestamp_time=1.764717|duration=4096|duration_time=0.092880|pkt_pos=14192|pkt_size=744|sample_fmt=fltp|nb_samples=2048|channels=2|channel_layout=unknown
frame|media_type=audio|stream_index=0|key_frame=1|pts=N/A|pts_time=N/A|pkt_dts=N/A|pkt_dts_time=N/A|best_effort_timestamp=N/A|best_effort_timestamp_time=N/A|duration=4096|duration_time=0.092880|pkt_pos=14192|pkt_size=744|sample_fmt=fltp|nb_samples=2048|channels=2|channel_layout=unknown
packet|codec_type=audio|stream_index=0|pts=81920|pts_time=1.857596|dts=81920|dts_time=1.857596|duration=4096|duration_time=0.092880|size=744|pos=14936|flags=K__
frame|media_type=audio|stream_index=0|key_frame=1|pts=81920|pts_time=1.857596|pkt_dts=81920|pkt_dts_time=1.857596|best_effort_timestamp=81920|best_effort_timestamp_time=1.857596|duration=4096|duration_time=0.092880|pkt_pos=14936|pkt_size=744|sample_fmt=fltp|nb_samples=2048|channels=2|channel_layout=unknown
frame|media_type=audio|stream_index=0|key_frame=1|pts=N/A|pts_time=N/A|pkt_dts=N/A|pkt_dts_time=N/A|best_effort_timestamp=N/A|best_effort_timestamp_time=N/A|duration=4096|duration_time=0.092880|pkt_pos=14936|pkt_size=744|sample_fmt=fltp|nb_samples=2048|channels=2|channel_layout=unknown
packet|codec_type=audio|stream_index=0|pts=86016|pts_time=1.950476|dts=86016|dts_time=1.950476|duration=4096|duration_time=0.092880|size=744|pos=15680|flags=K__
frame|media_type=audio|stream_index=0|key_frame=1|pts=86016|pts_time=1.950476|pkt_dts=86016|pkt_dts_time=1.950476|best_effort_timestamp=86016|best_effort_timestamp_time=1.950476|duration=4096|duration_time=0.092880|pkt_pos=15680|pkt_size=744|sample_fmt=fltp|nb_samples=2048|channels=2|channel_layout=unknown
frame|media_type=audio|stream_index=0|key_frame=1|pts=N/A|pts_time=N/A|pkt_dts=N/A|pkt_dts_time=N/A|best_effort_timestamp=N/A|best_effort_timestamp_time=N/A|duration=4096|duration_time=0.092880|pkt_pos=15680|pkt_size=744|sample_fmt=fltp|nb_samples=2048|channels=2|channel_layout=unknown
packet|codec_type=audio|stream_index=0|pts=90112|pts_time=2.043356|dts=90112|dts_time=2.043356|duration=4096|duration_time=0.092880|size=744|pos=16424|flags=K__
frame|media_type=audio|stream_index=0|key_frame=1|pts=90112|pts_time=2.043356|pkt_dts=90112|pkt_dts_time=2.043356|best_effort_timestamp=90112|best_effort_timestamp_time=2.043356|duration=4096|duration_time=0.092880|pkt_pos=16424|pkt_size=744|sample_fmt=fltp|nb_samples=2048|channels=2|channel_layout=unknown
frame|media_type=audio|stream_index=0|key_frame=1|pts=N/A|pts_time=N/A|pkt_dts=N/A|pkt_dts_time=N/A|best_effort_timestamp=N/A|best_effort_timestamp_time=N/A|duration=4096|duration_time=0.092880|pkt_pos=16424|pkt_size=744|sample_fmt=fltp|nb_samples=2048|channels=2|channel_layout=unknown
packet|codec_type=audio|stream_index=0|pts=94208|pts_time=2.136236|dts=94208|dts_time=2.136236|duration=4096|duration_time=0.092880|size=744|pos=17168|flags=K__
frame|media_type=audio|stream_index=0|key_frame=1|pts=94208|pts_time=2.136236|pkt_dts=94208|pkt_dts_time=2.136236|best_effort_timestamp=94208|best_effort_timestamp_time=2.136236|duration=4096|duration_time=0.092880|pkt_pos=17168|pkt_size=744|sample_fmt=fltp|nb_samples=2048|channels=2|channel_layout=unknown
frame|media_type=audio|stream_index=0|key_frame=1|pts=N/A|pts_time=N/A|pkt_dts=N/A|pkt_dts_time=N/A|best_effort_timestamp=N/A|best_effort_timestamp_time=N/A|duration=4096|duration_time=0.092880|pkt_pos=17168|pkt_size=744|sample_fmt=fltp|nb_samples=2048|channels=2|channel_layout=unknown
packet|codec_type=audio|stream_index=0|pts=98304|pts_time=2.229116|dts=98304|dts_time=2.229116|duration=4096|duration_time=0.092880|size=744|pos=17912|flags=K__
frame|media_type=audio|stream_index=0|key_frame=1|pts=98304|pts_time=2.229116|pkt_dts=98304|pkt_dts_time=2.229116|best_effort_timestamp=98304|best_effort_timestamp_time=2.229116|duration=4096|duration_time=0.092880|pkt_pos=17912|pkt_size=744|sample_fmt=fltp|nb_samples=2048|channels=2|channel_layout=unknown
frame|media_type=audio|stream_index=0|key_frame=1|pts=N/A|pts_time=N/A|pkt_dts=N/A|pkt_dts_time=N/A|best_effort_timestamp=N/A|best_effort_timestamp_time=N/A|duration=4096|duration_time=0.092880|pkt_pos=17912|pkt_size=744|sample_fmt=fltp|nb_samples=2048|channels=2|channel_layout=unknown
packet|codec_type=audio|stream_index=0|pts=102400|pts_time=2.321995|dts=102400|dts_time=2.321995|duration=4096|duration_time=0.092880|size=744|pos=18656|flags=K__
frame|media_type=audio|stream_index=0|key_frame=1|pts=102400|pts_time=2.321995|pkt_dts=102400|pkt_dts_time=2.321995|best_effort_timestamp=102400|best_effort_timestamp_time=2.321995|duration=4096|duration_time=0.092880|pkt_pos=18656|pkt_size=744|sample_fmt=fltp|nb_samples=2048|channels=2|channel_layout=unknown
frame|media_type=audio|stream_index=0|key_frame=1|pts=N/A|pts_time=N/A|pkt_dts=N/A|pkt_dts_time=N/A|best_effort_timestamp=N/A|best_effort_timestamp_time=N/A|duration=4096|duration_time=0.092880|pkt_pos=18656|pkt_size=744|sample_fmt=fltp|nb_samples=2048|channels=2|channel_layout=unknown
packet|codec_type=audio|stream_index=0|pts=106496|pts_time=2.414875|dts=106496|dts_time=2.414875|duration=4096|duration_time=0.092880|size=744|pos=19400|flags=K__
frame|media_type=audio|stream_index=0|key_frame=1|pts=106496|pts_time=2.414875|pkt_dts=106496|pkt_dts_time=2.414875|best_effort_timestamp=106496|best_effort_timestamp_time=2.414875|duration=4096|duration_time=0.092880|pkt_pos=19400|pkt_size=744|sample_fmt=fltp|nb_samples=2048|channels=2|channel_layout=unknown
frame|media_type=audio|stream_index=0|key_frame=1|pts=N/A|pts_time=N/A|pkt_dts=N/A|pkt_dts_time=N/A|best_effort_timestamp=N/A|best_effort_timestamp_time=N/A|duration=4096|duration_time=0.092880|pkt_pos=19400|pkt_size=744|sample_fmt=fltp|nb_samples=2048|channels=2|channel_layout=unknown
packet|codec_type=audio|stream_index=0|pts=110592|pts_time=2.507755|dts=110592|dts_time=2.507755|duration=4096|duration_time=0.092880|size=744|pos=20144|flags=K__
frame|media_type=audio|stream_index=0|key_frame=1|pts=110592|pts_time=2.507755|pkt_dts=110592|pkt_dts_time=2.507755|best_effort_timestamp=110592|best_effort_timestamp_time=2.507755|duration=4096|duration_time=0.092880|pkt_pos=20144|pkt_size=744|sample_fmt=fltp|nb_samples=2048|channels=2|channel_layout=unknown
frame|media_type=audio|stream_index=0|key_frame=1|pts=N/A|pts_time=N/A|pkt_dts=N/A|pkt_dts_time=N/A|best_effort_timestamp=N/A|best_effort_timestamp_time=N/A|duration=4096|duration_time=0.092880|pkt_pos=20144|pkt_size=744|sample_fmt=fltp|nb_samples=2048|channels=2|channel_layout=unknown
packet|codec_type=audio|stream_index=0|pts=114688|pts_time=2.600635|dts=114688|dts_time=2.600635|duration=4096|duration_time=0.092880|size=744|pos=20888|flags=K__
frame|media_type=audio|stream_index=0|key_frame=1|pts=114688|pts_time=2.600635|pkt_dts=114688|pkt_dts_time=2.600635|best_effort_timestamp=114688|best_effort_timestamp_time=2.600635|duration=4096|duration_time=0.092880|pkt_pos=20888|pkt_size=744|sample_fmt=fltp|nb_samples=2048|channels=2|channel_layout=unknown
frame|media_type=audio|stream_index=0|key_frame=1|pts=N/A|pts_time=N/A|pkt_dts=N/A|pkt_dts_time=N/A|best_effort_timestamp=N/A|best_effort_timestamp_time=N/A|duration=4096|duration_time=0.092880|pkt_pos=20888|pkt_size=744|sample_fmt=fltp|nb_samples=2048|channels=2|channel_layout=unknown
packet|codec_type=audio|stream_index=0|pts=118784|pts_time=2.693515|dts=118784|dts_time=2.693515|duration=4096|duration_time=0.092880|size=744|pos=21632|flags=K__
frame|media_type=audio|stream_index=0|key_frame=1|pts=118784|pts_time=2.693515|pkt_dts=118784|pkt_dts_time=2.693515|best_effort_timestamp=118784|best_effort_timestamp_time=2.693515|duration=4096|duration_time=0.092880|pkt_pos=21632|pkt_size=744|sample_fmt=fltp|nb_samples=2048|channels=2|channel_layout=unknown
frame|media_type=audio|stream_index=0|key_frame=1|pts=N/A|pts_time=N/A|pkt_dts=N/A|pkt_dts_time=N/A|best_effort_timestamp=N/A|best_effort_timestamp_time=N/A|duration=4096|duration_time=0.092880|pkt_pos=21632|pkt_size=744|sample_fmt=fltp|nb_samples=2048|channels=2|channel_layout=unknown
packet|codec_type=audio|stream_index=0|pts=122880|pts_time=2.786395|dts=122880|dts_time=2.786395|duration=4096|duration_time=0.092880|size=744|pos=22376|flags=K__
frame|media_type=audio|stream_index=0|key_frame=1|pts=122880|pts_time=2.786395|pkt_dts=122880|pkt_dts_time=2.786395|best_effort_timestamp=122880|best_effort_timestamp_time=2.786395|duration=4096|duration_time=0.092880|pkt_pos=22376|pkt_size=744|sample_fmt=fltp|nb_samples=2048|channels=2|channel_layout=unknown
frame|media_type=audio|stream_index=0|key_frame=1|pts=N/A|pts_time=N/A|pkt_dts=N/A|pkt_dts_time=N/A|best_effort_timestamp=N/A|best_effort_timestamp_time=N/A|duration=4096|duration_time=0.092880|pkt_pos=22376|pkt_size=744|sample_fmt=fltp|nb_samples=2048|channels=2|channel_layout=unknown
packet|codec_type=audio|stream_index=0|pts=126976|pts_time=2.879274|dts=126976|dts_time=2.879274|duration=4096|duration_time=0.092880|size=744|pos=23120|flags=K__
frame|media_type=audio|stream_index=0|key_frame=1|pts=126976|pts_time=2.879274|pkt_dts=126976|pkt_dts_time=2.879274|best_effort_timestamp=126976|best_effort_timestamp_time=2.879274|duration=4096|duration_time=0.092880|pkt_pos=23120|pkt_size=744|sample_fmt=fltp|nb_samples=2048|channels=2|channel_layout=unknown
frame|media_type=audio|stream_index=0|key_frame=1|pts=N/A|pts_time=N/A|pkt_dts=N/A|pkt_dts_time=N/A|best_effort_timestamp=N/A|best_effort_timestamp_time=N/A|duration=4096|duration_time=0.092880|pkt_pos=23120|pkt_size=744|sample_fmt=fltp|nb_samples=2048|channels=2|channel_layout=unknown
packet|codec_type=audio|stream_index=0|pts=131072|pts_time=2.972154|dts=131072|dts_time=2.972154|duration=4096|duration_time=0.092880|size=744|pos=23864|flags=K__
frame|media_type=audio|stream_index=0|key_frame=1|pts=131072|pts_time=2.972154|pkt_dts=131072|pkt_dts_time=2.972154|best_effort_timestamp=131072|best_effort_timestamp_time=2.972154|duration=4096|duration_time=0.092880|pkt_pos=23864|pkt_size=744|sample_fmt=fltp|nb_samples=2048|channels=2|channel_layout=unknown
frame|media_type=audio|stream_index=0|key_frame=1|pts=N/A|pts_time=N/A|pkt_dts=N/A|pkt_dts_time=N/A|best_effort_timestamp=N/A|best_effort_timestamp_time=N/A|duration=4096|duration_time=0.092880|pkt_pos=23864|pkt_size=744|sample_fmt=fltp|nb_samples=2048|channels=2|channel_layout=unknown
packet|codec_type=audio|stream_index=0|pts=135168|pts_time=3.065034|dts=135168|dts_time=3.065034|duration=4096|duration_time=0.092880|size=744|pos=24608|flags=K__
frame|media_type=audio|stream_index=0|key_frame=1|pts=135168|pts_time=3.065034|pkt_dts=135168|pkt_dts_time=3.065034|best_effort_timestamp=135168|best_effort_timestamp_time=3.065034|duration=4096|duration_time=0.092880|pkt_pos=24608|pkt_size=744|sample_fmt=fltp|nb_samples=2048|channels=2|channel_layout=unknown
frame|media_type=audio|stream_index=0|key_frame=1|pts=N/A|pts_time=N/A|pkt_dts=N/A|pkt_dts_time=N/A|best_effort_timestamp=N/A|best_effort_timestamp_time=N/A|duration=4096|duration_time=0.092880|pkt_pos=24608|pkt_size=744|sample_fmt=fltp|nb_samples=2048|channels=2|channel_layout=unknown
packet|codec_type=audio|stream_index=0|pts=139264|pts_time=3.157914|dts=139264|dts_time=3.157914|duration=4096|duration_time=0.092880|size=744|pos=25352|flags=K__
frame|media_type=audio|stream_index=0|key_frame=1|pts=139264|pts_time=3.157914|pkt_dts=139264|pkt_dts_time=3.157914|best_effort_timestamp=139264|best_effort_timestamp_time=3.157914|duration=4096|duration_time=0.092880|pkt_pos=25352|pkt_size=744|sample_fmt=fltp|nb_samples=2048|channels=2|channel_layout=unknown
frame|media_type=audio|stream_index=0|key_frame=1|pts=N/A|pts_time=N/A|pkt_dts=N/A|pkt_dts_time=N/A|best_effort_timestamp=N/A|best_effort_timestamp_time=N/A|duration=4096|duration_time=0.092880|pkt_pos=25352|pkt_size=744|sample_fmt=fltp|nb_samples=2048|channels=2|channel_layout=unknown
packet|codec_type=audio|stream_index=0|pts=143360|pts_time=3.250794|dts=143360|dts_time=3.250794|duration=4096|duration_time=0.092880|size=744|pos=26096|flags=K__
frame|media_type=audio|stream_index=0|key_frame=1|pts=143360|pts_time=3.250794|pkt_dts=143360|pkt_dts_time=3.250794|best_effort_timestamp=143360|best_effort_timestamp_time=3.250794|duration=4096|duration_time=0.092880|pkt_pos=26096|pkt_size=744|sample_fmt=fltp|nb_samples=2048|channels=2|channel_layout=unknown
frame|media_type=audio|stream_index=0|key_frame=1|pts=N/A|pts_time=N/A|pkt_dts=N/A|pkt_dts_time=N/A|best_effort_timestamp=N/A|best_effort_timestamp_time=N/A|duration=4096|duration_time=0.092880|pkt_pos=26096|pkt_size=744|sample_fmt=fltp|nb_samples=2048|channels=2|channel_layout=unknown
packet|codec_type=audio|stream_index=0|pts=147456|pts_time=3.343673|dts=147456|dts_time=3.343673|duration=4096|duration_time=0.092880|size=744|pos=26840|flags=K__
frame|media_type=audio|stream_index=0|key_frame=1|pts=147456|pts_time=3.343673|pkt_dts=147456|pkt_dts_time=3.343673|best_effort_timestamp=147456|best_effort_timestamp_time=3.343673|duration=4096|duration_time=0.092880|pkt_pos=26840|pkt_size=744|sample_fmt=fltp|nb_samples=2048|channels=2|channel_layout=unknown
frame|media_type=audio|stream_index=0|key_frame=1|pts=N/A|pts_time=N/A|pkt_dts=N/A|pkt_dts_time=N/A|best_effort_timestamp=N/A|best_effort_timestamp_time=N/A|duration=4096|duration_time=0.092880|pkt_pos=26840|pkt_size=744|sample_fmt=fltp|nb_samples=2048|channels=2|channel_layout=unknown
packet|codec_type=audio|stream_index=0|pts=151552|pts_time=3.436553|dts=151552|dts_time=3.436553|duration=4096|duration_time=0.092880|size=744|pos=27584|flags=K__
frame|media_type=audio|stream_index=0|key_frame=1|pts=151552|pts_time=3.436553|pkt_dts=151552|pkt_dts_time=3.436553|best_effort_timestamp=151552|best_effort_timestamp_time=3.436553|duration=4096|duration_time=0.092880|pkt_pos=27584|pkt_size=744|sample_fmt=fltp|nb_samples=2048|channels=2|channel_layout=unknown
frame|media_type=audio|stream_index=0|key_frame=1|pts=N/A|pts_time=N/A|pkt_dts=N/A|pkt_dts_time=N/A|best_effort_timestamp=N/A|best_effort_timestamp_time=N/A|duration=4096|duration_time=0.092880|pkt_pos=27584|pkt_size=744|sample_fmt=fltp|nb_samples=2048|channels=2|channel_layout=unknown
packet|codec_type=audio|stream_index=0|pts=155648|pts_time=3.529433|dts=155648|dts_time=3.529433|duration=4096|duration_time=0.092880|size=744|pos=28328|flags=K__
frame|media_type=audio|stream_index=0|key_frame=1|pts=155648|pts_time=3.529433|pkt_dts=155648|pkt_dts_time=3.529433|best_effort_timestamp=155648|best_effort_timestamp_time=3.529433|duration=4096|duration_time=0.092880|pkt_pos=28328|pkt_size=744|sample_fmt=fltp|nb_samples=2048|channels=2|channel_layout=unknown
frame|media_type=audio|stream_index=0|key_frame=1|pts=N/A|pts_time=N/A|pkt_dts=N/A|pkt_dts_time=N/A|best_effort_timestamp=N/A|best_effort_timestamp_time=N/A|duration=4096|duration_time=0.092880|pkt_pos=28328|pkt_size=744|sample_fmt=fltp|nb_samples=2048|channels=2|channel_layout=unknown
packet|codec_type=audio|stream_index=0|pts=159744|pts_time=3.622313|dts=159744|dts_time=3.622313|duration=4096|duration_time=0.092880|size=744|pos=29072|flags=K__
frame|media_type=audio|stream_index=0|key_frame=1|pts=159744|pts_time=3.622313|pkt_dts=159744|pkt_dts_time=3.622313|best_effort_timestamp=159744|best_effort_timestamp_time=3.622313|duration=4096|duration_time=0.092880|pkt_pos=29072|pkt_size=744|sample_fmt=fltp|nb_samples=2048|channels=2|channel_layout=unknown
frame|media_type=audio|stream_index=0|key_frame=1|pts=N/A|pts_time=N/A|pkt_dts=N/A|pkt_dts_time=N/A|best_effort_timestamp=N/A|best_effort_timestamp_time=N/A|duration=4096|duration_time=0.092880|pkt_pos=29072|pkt_size=744|sample_fmt=fltp|nb_samples=2048|channels=2|channel_layout=unknown
packet|codec_type=audio|stream_index=0|pts=163840|pts_time=3.715193|dts=163840|dts_time=3.715193|duration=4096|duration_time=0.092880|size=744|pos=29816|flags=K__
frame|media_type=audio|stream_index=0|key_frame=1|pts=163840|pts_time=3.715193|pkt_dts=163840|pkt_dts_time=3.715193|best_effort_timestamp=163840|best_effort_timestamp_time=3.715193|duration=4096|duration_time=0.092880|pkt_pos=29816|pkt_size=744|sample_fmt=fltp|nb_samples=2048|channels=2|channel_layout=unknown
frame|media_type=audio|stream_index=0|key_frame=1|pts=N/A|pts_time=N/A|pkt_dts=N/A|pkt_dts_time=N/A|best_effort_timestamp=N/A|best_effort_timestamp_time=N/A|duration=4096|duration_time=0.092880|pkt_pos=29816|pkt_size=744|sample_fmt=fltp|nb_samples=2048|channels=2|channel_layout=unknown
packet|codec_type=audio|stream_index=0|pts=167936|pts_time=3.808073|dts=167936|dts_time=3.808073|duration=4096|duration_time=0.092880|size=744|pos=30560|flags=K__
frame|media_type=audio|stream_index=0|key_frame=1|pts=167936|pts_time=3.808073|pkt_dts=167936|pkt_dts_time=3.808073|best_effort_timestamp=167936|best_effort_timestamp_time=3.808073|duration=4096|duration_time=0.092880|pkt_pos=30560|pkt_size=744|sample_fmt=fltp|nb_samples=2048|channels=2|channel_layout=unknown
frame|media_type=audio|stream_index=0|key_frame=1|pts=N/A|pts_time=N/A|pkt_dts=N/A|pkt_dts_time=N/A|best_effort_timestamp=N/A|best_effort_timestamp_time=N/A|duration=4096|duration_time=0.092880|pkt_pos=30560|pkt_size=744|sample_fmt=fltp|nb_samples=2048|channels=2|channel_layout=unknown
packet|codec_type=audio|stream_index=0|pts=172032|pts_time=3.900952|dts=172032|dts_time=3.900952|duration=4096|duration_time=0.092880|size=744|pos=31304|flags=K__
frame|media_type=audio|stream_index=0|key_frame=1|pts=172032|pts_time=3.900952|pkt_dts=172032|pkt_dts_time=3.900952|best_effort_timestamp=172032|best_effort_timestamp_time=3.900952|duration=4096|duration_time=0.092880|pkt_pos=31304|pkt_size=744|sample_fmt=fltp|nb_samples=2048|channels=2|channel_layout=unknown
frame|media_type=audio|stream_index=0|key_frame=1|pts=N/A|pts_time=N/A|pkt_dts=N/A|pkt_dts_time=N/A|best_effort_timestamp=N/A|best_effort_timestamp_time=N/A|duration=4096|duration_time=0.092880|pkt_pos=31304|pkt_size=744|sample_fmt=fltp|nb_samples=2048|channels=2|channel_layout=unknown
packet|codec_type=audio|stream_index=0|pts=176128|pts_time=3.993832|dts=176128|dts_time=3.993832|duration=4096|duration_time=0.092880|size=744|pos=32048|flags=K__
frame|media_type=audio|stream_index=0|key_frame=1|pts=176128|pts_time=3.993832|pkt_dts=176128|pkt_dts_time=3.993832|best_effort_timestamp=176128|best_effort_timestamp_time=3.993832|duration=4096|duration_time=0.092880|pkt_pos=32048|pkt_size=744|sample_fmt=fltp|nb_samples=2048|channels=2|channel_layout=unknown
frame|media_type=audio|stream_index=0|key_frame=1|pts=N/A|pts_time=N/A|pkt_dts=N/A|pkt_dts_time=N/A|best_effort_timestamp=N/A|best_effort_timestamp_time=N/A|duration=4096|duration_time=0.092880|pkt_pos=32048|pkt_size=744|sample_fmt=fltp|nb_samples=2048|channels=2|channel_layout=unknown
packet|codec_type=audio|stream_index=0|pts=180224|pts_time=4.086712|dts=180224|dts_time=4.086712|duration=4096|duration_time=0.092880|size=744|pos=32792|flags=K__
frame|media_type=audio|stream_index=0|key_frame=1|pts=180224|pts_time=4.086712|pkt_dts=180224|pkt_dts_time=4.086712|best_effort_timestamp=180224|best_effort_timestamp_time=4.086712|duration=4096|duration_time=0.092880|pkt_pos=32792|pkt_size=744|sample_fmt=fltp|nb_samples=2048|channels=2|channel_layout=unknown
frame|media_type=audio|stream_index=0|key_frame=1|pts=N/A|pts_time=N/A|pkt_dts=N/A|pkt_dts_time=N/A|best_effort_timestamp=N/A|best_effort_timestamp_time=N/A|duration=4096|duration_time=0.092880|pkt_pos=32792|pkt_size=744|sample_fmt=fltp|nb_samples=2048|channels=2|channel_layout=unknown
packet|codec_type=audio|stream_index=0|pts=184320|pts_time=4.179592|dts=184320|dts_time=4.179592|duration=4096|duration_time=0.092880|size=744|pos=33536|flags=K__
frame|media_type=audio|stream_index=0|key_frame=1|pts=184320|pts_time=4.179592|pkt_dts=184320|pkt_dts_time=4.179592|best_effort_timestamp=184320|best_effort_timestamp_time=4.179592|duration=4096|duration_time=0.092880|pkt_pos=33536|pkt_size=744|sample_fmt=fltp|nb_samples=2048|channels=2|channel_layout=unknown
frame|media_type=audio|stream_index=0|key_frame=1|pts=N/A|pts_time=N/A|pkt_dts=N/A|pkt_dts_time=N/A|best_effort_timestamp=N/A|best_effort_timestamp_time=N/A|duration=4096|duration_time=0.092880|pkt_pos=33536|pkt_size=744|sample_fmt=fltp|nb_samples=2048|channels=2|channel_layout=unknown
packet|codec_type=audio|stream_index=0|pts=188416|pts_time=4.272472|dts=188416|dts_time=4.272472|duration=4096|duration_time=0.092880|size=744|pos=34280|flags=K__
frame|media_type=audio|stream_index=0|key_frame=1|pts=188416|pts_time=4.272472|pkt_dts=188416|pkt_dts_time=4.272472|best_effort_timestamp=188416|best_effort_timestamp_time=4.272472|duration=4096|duration_time=0.092880|pkt_pos=34280|pkt_size=744|sample_fmt=fltp|nb_samples=2048|channels=2|channel_layout=unknown
frame|media_type=audio|stream_index=0|key_frame=1|pts=N/A|pts_time=N/A|pkt_dts=N/A|pkt_dts_time=N/A|best_effort_timestamp=N/A|best_effort_timestamp_time=N/A|duration=4096|duration_time=0.092880|pkt_pos=34280|pkt_size=744|sample_fmt=fltp|nb_samples=2048|channels=2|channel_layout=unknown
packet|codec_type=audio|stream_index=0|pts=192512|pts_time=4.365351|dts=192512|dts_time=4.365351|duration=4096|duration_time=0.092880|size=744|pos=35024|flags=K__
frame|media_type=audio|stream_index=0|key_frame=1|pts=192512|pts_time=4.365351|pkt_dts=192512|pkt_dts_time=4.365351|best_effort_timestamp=192512|best_effort_timestamp_time=4.365351|duration=4096|duration_time=0.092880|pkt_pos=35024|pkt_size=744|sample_fmt=fltp|nb_samples=2048|channels=2|channel_layout=unknown
frame|media_type=audio|stream_index=0|key_frame=1|pts=N/A|pts_time=N/A|pkt_dts=N/A|pkt_dts_time=N/A|best_effort_timestamp=N/A|best_effort_timestamp_time=N/A|duration=4096|duration_time=0.092880|pkt_pos=35024|pkt_size=744|sample_fmt=fltp|nb_samples=2048|channels=2|channel_layout=unknown
packet|codec_type=audio|stream_index=0|pts=196608|pts_time=4.458231|dts=196608|dts_time=4.458231|duration=4096|duration_time=0.092880|size=744|pos=35768|flags=K__
frame|media_type=audio|stream_index=0|key_frame=1|pts=196608|pts_time=4.458231|pkt_dts=196608|pkt_dts_time=4.458231|best_effort_timestamp=196608|best_effort_timestamp_time=4.458231|duration=4096|duration_time=0.092880|pkt_pos=35768|pkt_size=744|sample_fmt=fltp|nb_samples=2048|channels=2|channel_layout=unknown
frame|media_type=audio|stream_index=0|key_frame=1|pts=N/A|pts_time=N/A|pkt_dts=N/A|pkt_dts_time=N/A|best_effort_timestamp=N/A|best_effort_timestamp_time=N/A|duration=4096|duration_time=0.092880|pkt_pos=35768|pkt_size=744|sample_fmt=fltp|nb_samples=2048|channels=2|channel_layout=unknown
packet|codec_type=audio|stream_index=0|pts=200704|pts_time=4.551111|dts=200704|dts_time=4.551111|duration=4096|duration_time=0.092880|size=744|pos=36512|flags=K__
frame|media_type=audio|stream_index=0|key_frame=1|pts=200704|pts_time=4.551111|pkt_dts=200704|pkt_dts_time=4.551111|best_effort_timestamp=200704|best_effort_timestamp_time=4.551111|duration=4096|duration_time=0.092880|pkt_pos=36512|pkt_size=744|sample_fmt=fltp|nb_samples=2048|channels=2|channel_layout=unknown
frame|media_type=audio|stream_index=0|key_frame=1|pts=N/A|pts_time=N/A|pkt_dts=N/A|pkt_dts_time=N/A|best_effort_timestamp=N/A|best_effort_timestamp_time=N/A|duration=4096|duration_time=0.092880|pkt_pos=36512|pkt_size=744|sample_fmt=fltp|nb_samples=2048|channels=2|channel_layout=unknown
packet|codec_type=audio|stream_index=0|pts=204800|pts_time=4.643991|dts=204800|dts_time=4.643991|duration=4096|duration_time=0.092880|size=744|pos=37256|flags=K__
frame|media_type=audio|stream_index=0|key_frame=1|pts=204800|pts_time=4.643991|pkt_dts=204800|pkt_dts_time=4.643991|best_effort_timestamp=204800|best_effort_timestamp_time=4.643991|duration=4096|duration_time=0.092880|pkt_pos=37256|pkt_size=744|sample_fmt=fltp|nb_samples=2048|channels=2|channel_layout=unknown
frame|media_type=audio|stream_index=0|key_frame=1|pts=N/A|pts_time=N/A|pkt_dts=N/A|pkt_dts_time=N/A|best_effort_timestamp=N/A|best_effort_timestamp_time=N/A|duration=4096|duration_time=0.092880|pkt_pos=37256|pkt_size=744|sample_fmt=fltp|nb_samples=2048|channels=2|channel_layout=unknown
packet|codec_type=audio|stream_index=0|pts=208896|pts_time=4.736871|dts=208896|dts_time=4.736871|duration=4096|duration_time=0.092880|size=744|pos=38000|flags=K__
frame|media_type=audio|stream_index=0|key_frame=1|pts=208896|pts_time=4.736871|pkt_dts=208896|pkt_dts_time=4.736871|best_effort_timestamp=208896|best_effort_timestamp_time=4.736871|duration=4096|duration_time=0.092880|pkt_pos=38000|pkt_size=744|sample_fmt=fltp|nb_samples=2048|channels=2|channel_layout=unknown
frame|media_type=audio|stream_index=0|key_frame=1|pts=N/A|pts_time=N/A|pkt_dts=N/A|pkt_dts_time=N/A|best_effort_timestamp=N/A|best_effort_timestamp_time=N/A|duration=4096|duration_time=0.092880|pkt_pos=38000|pkt_size=744|sample_fmt=fltp|nb_samples=2048|channels=2|channel_layout=unknown
packet|codec_type=audio|stream_index=0|pts=212992|pts_time=4.829751|dts=212992|dts_time=4.829751|duration=4096|duration_time=0.092880|size=744|pos=38744|flags=K__
frame|media_type=audio|stream_index=0|key_frame=1|pts=212992|pts_time=4.829751|pkt_dts=212992|pkt_dts_time=4.829751|best_effort_timestamp=212992|best_effort_timestamp_time=4.829751|duration=4096|duration_time=0.092880|pkt_pos=38744|pkt_size=744|sample_fmt=fltp|nb_samples=2048|channels=2|channel_layout=unknown
frame|media_type=audio|stream_index=0|key_frame=1|pts=N/A|pts_time=N/A|pkt_dts=N/A|pkt_dts_time=N/A|best_effort_timestamp=N/A|best_effort_timestamp_time=N/A|duration=4096|duration_time=0.092880|pkt_pos=38744|pkt_size=744|sample_fmt=fltp|nb_samples=2048|channels=2|channel_layout=unknown
packet|codec_type=audio|stream_index=0|pts=217088|pts_time=4.922630|dts=217088|dts_time=4.922630|duration=4096|duration_time=0.092880|size=744|pos=39488|flags=K__
frame|media_type=audio|stream_index=0|key_frame=1|pts=217088|pts_time=4.922630|pkt_dts=217088|pkt_dts_time=4.922630|best_effort_timestamp=217088|best_effort_timestamp_time=4.922630|duration=4096|duration_time=0.092880|pkt_pos=39488|pkt_size=744|sample_fmt=fltp|nb_samples=2048|channels=2|channel_layout=unknown
frame|media_type=audio|stream_index=0|key_frame=1|pts=N/A|pts_time=N/A|pkt_dts=N/A|pkt_dts_time=N/A|best_effort_timestamp=N/A|best_effort_timestamp_time=N/A|duration=4096|duration_time=0.092880|pkt_pos=39488|pkt_size=744|sample_fmt=fltp|nb_samples=2048|channels=2|channel_layout=unknown
packet|codec_type=audio|stream_index=0|pts=221184|pts_time=5.015510|dts=221184|dts_time=5.015510|duration=4096|duration_time=0.092880|size=744|pos=40232|flags=K__
frame|media_type=audio|stream_index=0|key_frame=1|pts=221184|pts_time=5.015510|pkt_dts=221184|pkt_dts_time=5.015510|best_effort_timestamp=221184|best_effort_timestamp_time=5.015510|duration=4096|duration_time=0.092880|pkt_pos=40232|pkt_size=744|sample_fmt=fltp|nb_samples=2048|channels=2|channel_layout=unknown
frame|media_type=audio|stream_index=0|key_frame=1|pts=N/A|pts_time=N/A|pkt_dts=N/A|pkt_dts_time=N/A|best_effort_timestamp=N/A|best_effort_timestamp_time=N/A|duration=4096|duration_time=0.092880|pkt_pos=40232|pkt_size=744|sample_fmt=fltp|nb_samples=2048|channels=2|channel_layout=unknown
packet|codec_type=audio|stream_index=0|pts=225280|pts_time=5.108390|dts=225280|dts_time=5.108390|duration=4096|duration_time=0.092880|size=744|pos=40976|flags=K__
frame|media_type=audio|stream_index=0|key_frame=1|pts=225280|pts_time=5.108390|pkt_dts=225280|pkt_dts_time=5.108390|best_effort_timestamp=225280|best_effort_timestamp_time=5.108390|duration=4096|duration_time=0.092880|pkt_pos=40976|pkt_size=744|sample_fmt=fltp|nb_samples=2048|channels=2|channel_layout=unknown
frame|media_type=audio|stream_index=0|key_frame=1|pts=N/A|pts_time=N/A|pkt_dts=N/A|pkt_dts_time=N/A|best_effort_timestamp=N/A|best_effort_timestamp_time=N/A|duration=4096|duration_time=0.092880|pkt_pos=40976|pkt_size=744|sample_fmt=fltp|nb_samples=2048|channels=2|channel_layout=unknown
packet|codec_type=audio|stream_index=0|pts=229376|pts_time=5.201270|dts=229376|dts_time=5.201270|duration=4096|duration_time=0.092880|size=744|pos=41720|flags=K__
frame|media_type=audio|stream_index=0|key_frame=1|pts=229376|pts_time=5.201270|pkt_dts=229376|pkt_dts_time=5.201270|best_effort_timestamp=229376|best_effort_timestamp_time=5.201270|duration=4096|duration_time=0.092880|pkt_pos=41720|pkt_size=744|sample_fmt=fltp|nb_samples=2048|channels=2|channel_layout=unknown
frame|media_type=audio|stream_index=0|key_frame=1|pts=N/A|pts_time=N/A|pkt_dts=N/A|pkt_dts_time=N/A|best_effort_timestamp=N/A|best_effort_timestamp_time=N/A|duration=4096|duration_time=0.092880|pkt_pos=41720|pkt_size=744|sample_fmt=fltp|nb_samples=2048|channels=2|channel_layout=unknown
packet|codec_type=audio|stream_index=0|pts=233472|pts_time=5.294150|dts=233472|dts_time=5.294150|duration=4096|duration_time=0.092880|size=744|pos=42464|flags=K__
frame|media_type=audio|stream_index=0|key_frame=1|pts=233472|pts_time=5.294150|pkt_dts=233472|pkt_dts_time=5.294150|best_effort_timestamp=233472|best_effort_timestamp_time=5.294150|duration=4096|duration_time=0.092880|pkt_pos=42464|pkt_size=744|sample_fmt=fltp|nb_samples=2048|channels=2|channel_layout=unknown
frame|media_type=audio|stream_index=0|key_frame=1|pts=N/A|pts_time=N/A|pkt_dts=N/A|pkt_dts_time=N/A|best_effort_timestamp=N/A|best_effort_timestamp_time=N/A|duration=4096|duration_time=0.092880|pkt_pos=42464|pkt_size=744|sample_fmt=fltp|nb_samples=2048|channels=2|channel_layout=unknown
packet|codec_type=audio|stream_index=0|pts=237568|pts_time=5.387029|dts=237568|dts_time=5.387029|duration=4096|duration_time=0.092880|size=744|pos=43208|flags=K__
frame|media_type=audio|stream_index=0|key_frame=1|pts=237568|pts_time=5.387029|pkt_dts=237568|pkt_dts_time=5.387029|best_effort_timestamp=237568|best_effort_timestamp_time=5.387029|duration=4096|duration_time=0.092880|pkt_pos=43208|pkt_size=744|sample_fmt=fltp|nb_samples=2048|channels=2|channel_layout=unknown
frame|media_type=audio|stream_index=0|key_frame=1|pts=N/A|pts_time=N/A|pkt_dts=N/A|pkt_dts_time=N/A|best_effort_timestamp=N/A|best_effort_timestamp_time=N/A|duration=4096|duration_time=0.092880|pkt_pos=43208|pkt_size=744|sample_fmt=fltp|nb_samples=2048|channels=2|channel_layout=unknown
packet|codec_type=audio|stream_index=0|pts=241664|pts_time=5.479909|dts=241664|dts_time=5.479909|duration=4096|duration_time=0.092880|size=744|pos=43952|flags=K__
frame|media_type=audio|stream_index=0|key_frame=1|pts=241664|pts_time=5.479909|pkt_dts=241664|pkt_dts_time=5.479909|best_effort_timestamp=241664|best_effort_timestamp_time=5.479909|duration=4096|duration_time=0.092880|pkt_pos=43952|pkt_size=744|sample_fmt=fltp|nb_samples=2048|channels=2|channel_layout=unknown
frame|media_type=audio|stream_index=0|key_frame=1|pts=N/A|pts_time=N/A|pkt_dts=N/A|pkt_dts_time=N/A|best_effort_timestamp=N/A|best_effort_timestamp_time=N/A|duration=4096|duration_time=0.092880|pkt_pos=43952|pkt_size=744|sample_fmt=fltp|nb_samples=2048|channels=2|channel_layout=unknown
packet|codec_type=audio|stream_index=0|pts=245760|pts_time=5.572789|dts=245760|dts_time=5.572789|duration=4096|duration_time=0.092880|size=744|pos=44696|flags=K__
frame|media_type=audio|stream_index=0|key_frame=1|pts=245760|pts_time=5.572789|pkt_dts=245760|pkt_dts_time=5.572789|best_effort_timestamp=245760|best_effort_timestamp_time=5.572789|duration=4096|duration_time=0.092880|pkt_pos=44696|pkt_size=744|sample_fmt=fltp|nb_samples=2048|channels=2|channel_layout=unknown
frame|media_type=audio|stream_index=0|key_frame=1|pts=N/A|pts_time=N/A|pkt_dts=N/A|pkt_dts_time=N/A|best_effort_timestamp=N/A|best_effort_timestamp_time=N/A|duration=4096|duration_time=0.092880|pkt_pos=44696|pkt_size=744|sample_fmt=fltp|nb_samples=2048|channels=2|channel_layout=unknown
packet|codec_type=audio|stream_index=0|pts=249856|pts_time=5.665669|dts=249856|dts_time=5.665669|duration=4096|duration_time=0.092880|size=744|pos=45440|flags=K__
frame|media_type=audio|stream_index=0|key_frame=1|pts=249856|pts_time=5.665669|pkt_dts=249856|pkt_dts_time=5.665669|best_effort_timestamp=249856|best_effort_timestamp_time=5.665669|duration=4096|duration_time=0.092880|pkt_pos=45440|pkt_size=744|sample_fmt=fltp|nb_samples=2048|channels=2|channel_layout=unknown
frame|media_type=audio|stream_index=0|key_frame=1|pts=N/A|pts_time=N/A|pkt_dts=N/A|pkt_dts_time=N/A|best_effort_timestamp=N/A|best_effort_timestamp_time=N/A|duration=4096|duration_time=0.092880|pkt_pos=45440|pkt_size=744|sample_fmt=fltp|nb_samples=2048|channels=2|channel_layout=unknown
packet|codec_type=audio|stream_index=0|pts=253952|pts_time=5.758549|dts=253952|dts_time=5.758549|duration=4096|duration_time=0.092880|size=744|pos=46184|flags=K__
frame|media_type=audio|stream_index=0|key_frame=1|pts=253952|pts_time=5.758549|pkt_dts=253952|pkt_dts_time=5.758549|best_effort_timestamp=253952|best_effort_timestamp_time=5.758549|duration=4096|duration_time=0.092880|pkt_pos=46184|pkt_size=744|sample_fmt=fltp|nb_samples=2048|channels=2|channel_layout=unknown
frame|media_type=audio|stream_index=0|key_frame=1|pts=N/A|pts_time=N/A|pkt_dts=N/A|pkt_dts_time=N/A|best_effort_timestamp=N/A|best_effort_timestamp_time=N/A|duration=4096|duration_time=0.092880|pkt_pos=46184|pkt_size=744|sample_fmt=fltp|nb_samples=2048|channels=2|channel_layout=unknown
packet|codec_type=audio|stream_index=0|pts=258048|pts_time=5.851429|dts=258048|dts_time=5.851429|duration=4096|duration_time=0.092880|size=744|pos=46928|flags=K__
frame|media_type=audio|stream_index=0|key_frame=1|pts=258048|pts_time=5.851429|pkt_dts=258048|pkt_dts_time=5.851429|best_effort_timestamp=258048|best_effort_timestamp_time=5.851429|duration=4096|duration_time=0.092880|pkt_pos=46928|pkt_size=744|sample_fmt=fltp|nb_samples=2048|channels=2|channel_layout=unknown
frame|media_type=audio|stream_index=0|key_frame=1|pts=N/A|pts_time=N/A|pkt_dts=N/A|pkt_dts_time=N/A|best_effort_timestamp=N/A|best_effort_timestamp_time=N/A|duration=4096|duration_time=0.092880|pkt_pos=46928|pkt_size=744|sample_fmt=fltp|nb_samples=2048|channels=2|channel_layout=unknown
packet|codec_type=audio|stream_index=0|pts=262144|pts_time=5.944308|dts=262144|dts_time=5.944308|duration=4096|duration_time=0.092880|size=744|pos=47672|flags=K__
frame|media_type=audio|stream_index=0|key_frame=1|pts=262144|pts_time=5.944308|pkt_dts=262144|pkt_dts_time=5.944308|best_effort_timestamp=262144|best_effort_timestamp_time=5.944308|duration=4096|duration_time=0.092880|pkt_pos=47672|pkt_size=744|sample_fmt=fltp|nb_samples=2048|channels=2|channel_layout=unknown
frame|media_type=audio|stream_index=0|key_frame=1|pts=N/A|pts_time=N/A|pkt_dts=N/A|pkt_dts_time=N/A|best_effort_timestamp=N/A|best_effort_timestamp_time=N/A|duration=4096|duration_time=0.092880|pkt_pos=47672|pkt_size=744|sample_fmt=fltp|nb_samples=2048|channels=2|channel_layout=unknown
packet|codec_type=audio|stream_index=0|pts=266240|pts_time=6.037188|dts=266240|dts_time=6.037188|duration=4096|duration_time=0.092880|size=744|pos=48416|flags=K__
frame|media_type=audio|stream_index=0|key_frame=1|pts=266240|pts_time=6.037188|pkt_dts=266240|pkt_dts_time=6.037188|best_effort_timestamp=266240|best_effort_timestamp_time=6.037188|duration=4096|duration_time=0.092880|pkt_pos=48416|pkt_size=744|sample_fmt=fltp|nb_samples=2048|channels=2|channel_layout=unknown
frame|media_type=audio|stream_index=0|key_frame=1|pts=N/A|pts_time=N/A|pkt_dts=N/A|pkt_dts_time=N/A|best_effort_timestamp=N/A|best_effort_timestamp_time=N/A|duration=4096|duration_time=0.092880|pkt_pos=48416|pkt_size=744|sample_fmt=fltp|nb_samples=2048|channels=2|channel_layout=unknown
packet|codec_type=audio|stream_index=0|pts=270336|pts_time=6.130068|dts=270336|dts_time=6.130068|duration=4096|duration_time=0.092880|size=744|pos=49160|flags=K__
frame|media_type=audio|stream_index=0|key_frame=1|pts=270336|pts_time=6.130068|pkt_dts=270336|pkt_dts_time=6.130068|best_effort_timestamp=270336|best_effort_timestamp_time=6.130068|duration=4096|duration_time=0.092880|pkt_pos=49160|pkt_size=744|sample_fmt=fltp|nb_samples=2048|channels=2|channel_layout=unknown
frame|media_type=audio|stream_index=0|key_frame=1|pts=N/A|pts_time=N/A|pkt_dts=N/A|pkt_dts_time=N/A|best_effort_timestamp=N/A|best_effort_timestamp_time=N/A|duration=4096|duration_time=0.092880|pkt_pos=49160|pkt_size=744|sample_fmt=fltp|nb_samples=2048|channels=2|channel_layout=unknown
packet|codec_type=audio|stream_index=0|pts=274432|pts_time=6.222948|dts=274432|dts_time=6.222948|duration=4096|duration_time=0.092880|size=744|pos=49904|flags=K__
frame|media_type=audio|stream_index=0|key_frame=1|pts=274432|pts_time=6.222948|pkt_dts=274432|pkt_dts_time=6.222948|best_effort_timestamp=274432|best_effort_timestamp_time=6.222948|duration=4096|duration_time=0.092880|pkt_pos=49904|pkt_size=744|sample_fmt=fltp|nb_samples=2048|channels=2|channel_layout=unknown
frame|media_type=audio|stream_index=0|key_frame=1|pts=N/A|pts_time=N/A|pkt_dts=N/A|pkt_dts_time=N/A|best_effort_timestamp=N/A|best_effort_timestamp_time=N/A|duration=4096|duration_time=0.092880|pkt_pos=49904|pkt_size=744|sample_fmt=fltp|nb_samples=2048|channels=2|channel_layout=unknown
packet|codec_type=audio|stream_index=0|pts=278528|pts_time=6.315828|dts=278528|dts_time=6.315828|duration=4096|duration_time=0.092880|size=744|pos=50648|flags=K__
frame|media_type=audio|stream_index=0|key_frame=1|pts=278528|pts_time=6.315828|pkt_dts=278528|pkt_dts_time=6.315828|best_effort_timestamp=278528|best_effort_timestamp_time=6.315828|duration=4096|duration_time=0.092880|pkt_pos=50648|pkt_size=744|sample_fmt=fltp|nb_samples=2048|channels=2|channel_layout=unknown
frame|media_type=audio|stream_index=0|key_frame=1|pts=N/A|pts_time=N/A|pkt_dts=N/A|pkt_dts_time=N/A|best_effort_timestamp=N/A|best_effort_timestamp_time=N/A|duration=4096|duration_time=0.092880|pkt_pos=50648|pkt_size=744|sample_fmt=fltp|nb_samples=2048|channels=2|channel_layout=unknown
packet|codec_type=audio|stream_index=0|pts=282624|pts_time=6.408707|dts=282624|dts_time=6.408707|duration=4096|duration_time=0.092880|size=744|pos=51392|flags=K__
frame|media_type=audio|stream_index=0|key_frame=1|pts=282624|pts_time=6.408707|pkt_dts=282624|pkt_dts_time=6.408707|best_effort_timestamp=282624|best_effort_timestamp_time=6.408707|duration=4096|duration_time=0.092880|pkt_pos=51392|pkt_size=744|sample_fmt=fltp|nb_samples=2048|channels=2|channel_layout=unknown
frame|media_type=audio|stream_index=0|key_frame=1|pts=N/A|pts_time=N/A|pkt_dts=N/A|pkt_dts_time=N/A|best_effort_timestamp=N/A|best_effort_timestamp_time=N/A|duration=4096|duration_time=0.092880|pkt_pos=51392|pkt_size=744|sample_fmt=fltp|nb_samples=2048|channels=2|channel_layout=unknown
packet|codec_type=audio|stream_index=0|pts=286720|pts_time=6.501587|dts=286720|dts_time=6.501587|duration=4096|duration_time=0.092880|size=744|pos=52136|flags=K__
frame|media_type=audio|stream_index=0|key_frame=1|pts=286720|pts_time=6.501587|pkt_dts=286720|pkt_dts_time=6.501587|best_effort_timestamp=286720|best_effort_timestamp_time=6.501587|duration=4096|duration_time=0.092880|pkt_pos=52136|pkt_size=744|sample_fmt=fltp|nb_samples=2048|channels=2|channel_layout=unknown
frame|media_type=audio|stream_index=0|key_frame=1|pts=N/A|pts_time=N/A|pkt_dts=N/A|pkt_dts_time=N/A|best_effort_timestamp=N/A|best_effort_timestamp_time=N/A|duration=4096|duration_time=0.092880|pkt_pos=52136|pkt_size=744|sample_fmt=fltp|nb_samples=2048|channels=2|channel_layout=unknown
packet|codec_type=audio|stream_index=0|pts=290816|pts_time=6.594467|dts=290816|dts_time=6.594467|duration=4096|duration_time=0.092880|size=744|pos=52880|flags=K__
frame|media_type=audio|stream_index=0|key_frame=1|pts=290816|pts_time=6.594467|pkt_dts=290816|pkt_dts_time=6.594467|best_effort_timestamp=290816|best_effort_timestamp_time=6.594467|duration=4096|duration_time=0.092880|pkt_pos=52880|pkt_size=744|sample_fmt=fltp|nb_samples=2048|channels=2|channel_layout=unknown
frame|media_type=audio|stream_index=0|key_frame=1|pts=N/A|pts_time=N/A|pkt_dts=N/A|pkt_dts_time=N/A|best_effort_timestamp=N/A|best_effort_timestamp_time=N/A|duration=4096|duration_time=0.092880|pkt_pos=52880|pkt_size=744|sample_fmt=fltp|nb_samples=2048|channels=2|channel_layout=unknown
packet|codec_type=audio|stream_index=0|pts=294912|pts_time=6.687347|dts=294912|dts_time=6.687347|duration=4096|duration_time=0.092880|size=744|pos=53624|flags=K__
frame|media_type=audio|stream_index=0|key_frame=1|pts=294912|pts_time=6.687347|pkt_dts=294912|pkt_dts_time=6.687347|best_effort_timestamp=294912|best_effort_timestamp_time=6.687347|duration=4096|duration_time=0.092880|pkt_pos=53624|pkt_size=744|sample_fmt=fltp|nb_samples=2048|channels=2|channel_layout=unknown
frame|media_type=audio|stream_index=0|key_frame=1|pts=N/A|pts_time=N/A|pkt_dts=N/A|pkt_dts_time=N/A|best_effort_timestamp=N/A|best_effort_timestamp_time=N/A|duration=4096|duration_time=0.092880|pkt_pos=53624|pkt_size=744|sample_fmt=fltp|nb_samples=2048|channels=2|channel_layout=unknown
packet|codec_type=audio|stream_index=0|pts=299008|pts_time=6.780227|dts=299008|dts_time=6.780227|duration=4096|duration_time=0.092880|size=744|pos=54368|flags=K__
frame|media_type=audio|stream_index=0|key_frame=1|pts=299008|pts_time=6.780227|pkt_dts=299008|pkt_dts_time=6.780227|best_effort_timestamp=299008|best_effort_timestamp_time=6.780227|duration=4096|duration_time=0.092880|pkt_pos=54368|pkt_size=744|sample_fmt=fltp|nb_samples=2048|channels=2|channel_layout=unknown
frame|media_type=audio|stream_index=0|key_frame=1|pts=N/A|pts_time=N/A|pkt_dts=N/A|pkt_dts_time=N/A|best_effort_timestamp=N/A|best_effort_timestamp_time=N/A|duration=4096|duration_time=0.092880|pkt_pos=54368|pkt_size=744|sample_fmt=fltp|nb_samples=2048|channels=2|channel_layout=unknown
packet|codec_type=audio|stream_index=0|pts=303104|pts_time=6.873107|dts=303104|dts_time=6.873107|duration=4096|duration_time=0.092880|size=744|pos=55112|flags=K__
frame|media_type=audio|stream_index=0|key_frame=1|pts=303104|pts_time=6.873107|pkt_dts=303104|pkt_dts_time=6.873107|best_effort_timestamp=303104|best_effort_timestamp_time=6.873107|duration=4096|duration_time=0.092880|pkt_pos=55112|pkt_size=744|sample_fmt=fltp|nb_samples=2048|channels=2|channel_layout=unknown
frame|media_type=audio|stream_index=0|key_frame=1|pts=N/A|pts_time=N/A|pkt_dts=N/A|pkt_dts_time=N/A|best_effort_timestamp=N/A|best_effort_timestamp_time=N/A|duration=4096|duration_time=0.092880|pkt_pos=55112|pkt_size=744|sample_fmt=fltp|nb_samples=2048|channels=2|channel_layout=unknown
packet|codec_type=audio|stream_index=0|pts=307200|pts_time=6.965986|dts=307200|dts_time=6.965986|duration=4096|duration_time=0.092880|size=744|pos=55856|flags=K__
frame|media_type=audio|stream_index=0|key_frame=1|pts=307200|pts_time=6.965986|pkt_dts=307200|pkt_dts_time=6.965986|best_effort_timestamp=307200|best_effort_timestamp_time=6.965986|duration=4096|duration_time=0.092880|pkt_pos=55856|pkt_size=744|sample_fmt=fltp|nb_samples=2048|channels=2|channel_layout=unknown
frame|media_type=audio|stream_index=0|key_frame=1|pts=N/A|pts_time=N/A|pkt_dts=N/A|pkt_dts_time=N/A|best_effort_timestamp=N/A|best_effort_timestamp_time=N/A|duration=4096|duration_time=0.092880|pkt_pos=55856|pkt_size=744|sample_fmt=fltp|nb_samples=2048|channels=2|channel_layout=unknown
packet|codec_type=audio|stream_index=0|pts=311296|pts_time=7.058866|dts=311296|dts_time=7.058866|duration=4096|duration_time=0.092880|size=744|pos=56600|flags=K__
frame|media_type=audio|stream_index=0|key_frame=1|pts=311296|pts_time=7.058866|pkt_dts=311296|pkt_dts_time=7.058866|best_effort_timestamp=311296|best_effort_timestamp_time=7.058866|duration=4096|duration_time=0.092880|pkt_pos=56600|pkt_size=744|sample_fmt=fltp|nb_samples=2048|channels=2|channel_layout=unknown
frame|media_type=audio|stream_index=0|key_frame=1|pts=N/A|pts_time=N/A|pkt_dts=N/A|pkt_dts_time=N/A|best_effort_timestamp=N/A|best_effort_timestamp_time=N/A|duration=4096|duration_time=0.092880|pkt_pos=56600|pkt_size=744|sample_fmt=fltp|nb_samples=2048|channels=2|channel_layout=unknown
packet|codec_type=audio|stream_index=0|pts=315392|pts_time=7.151746|dts=315392|dts_time=7.151746|duration=4096|duration_time=0.092880|size=744|pos=57344|flags=K__
frame|media_type=audio|stream_index=0|key_frame=1|pts=315392|pts_time=7.151746|pkt_dts=315392|pkt_dts_time=7.151746|best_effort_timestamp=315392|best_effort_timestamp_time=7.151746|duration=4096|duration_time=0.092880|pkt_pos=57344|pkt_size=744|sample_fmt=fltp|nb_samples=2048|channels=2|channel_layout=unknown
frame|media_type=audio|stream_index=0|key_frame=1|pts=N/A|pts_time=N/A|pkt_dts=N/A|pkt_dts_time=N/A|best_effort_timestamp=N/A|best_effort_timestamp_time=N/A|duration=4096|duration_time=0.092880|pkt_pos=57344|pkt_size=744|sample_fmt=fltp|nb_samples=2048|channels=2|channel_layout=unknown
packet|codec_type=audio|stream_index=0|pts=319488|pts_time=7.244626|dts=319488|dts_time=7.244626|duration=4096|duration_time=0.092880|size=744|pos=58088|flags=K__
frame|media_type=audio|stream_index=0|key_frame=1|pts=319488|pts_time=7.244626|pkt_dts=319488|pkt_dts_time=7.244626|best_effort_timestamp=319488|best_effort_timestamp_time=7.244626|duration=4096|duration_time=0.092880|pkt_pos=58088|pkt_size=744|sample_fmt=fltp|nb_samples=2048|channels=2|channel_layout=unknown
frame|media_type=audio|stream_index=0|key_frame=1|pts=N/A|pts_time=N/A|pkt_dts=N/A|pkt_dts_time=N/A|best_effort_timestamp=N/A|best_effort_timestamp_time=N/A|duration=4096|duration_time=0.092880|pkt_pos=58088|pkt_size=744|sample_fmt=fltp|nb_samples=2048|channels=2|channel_layout=unknown
packet|codec_type=audio|stream_index=0|pts=323584|pts_time=7.337506|dts=323584|dts_time=7.337506|duration=4096|duration_time=0.092880|size=744|pos=58832|flags=K__
frame|media_type=audio|stream_index=0|key_frame=1|pts=323584|pts_time=7.337506|pkt_dts=323584|pkt_dts_time=7.337506|best_effort_timestamp=323584|best_effort_timestamp_time=7.337506|duration=4096|duration_time=0.092880|pkt_pos=58832|pkt_size=744|sample_fmt=fltp|nb_samples=2048|channels=2|channel_layout=unknown
frame|media_type=audio|stream_index=0|key_frame=1|pts=N/A|pts_time=N/A|pkt_dts=N/A|pkt_dts_time=N/A|best_effort_timestamp=N/A|best_effort_timestamp_time=N/A|duration=4096|duration_time=0.092880|pkt_pos=58832|pkt_size=744|sample_fmt=fltp|nb_samples=2048|channels=2|channel_layout=unknown
packet|codec_type=audio|stream_index=0|pts=327680|pts_time=7.430385|dts=327680|dts_time=7.430385|duration=4096|duration_time=0.092880|size=744|pos=59576|flags=K__
frame|media_type=audio|stream_index=0|key_frame=1|pts=327680|pts_time=7.430385|pkt_dts=327680|pkt_dts_time=7.430385|best_effort_timestamp=327680|best_effort_timestamp_time=7.430385|duration=4096|duration_time=0.092880|pkt_pos=59576|pkt_size=744|sample_fmt=fltp|nb_samples=2048|channels=2|channel_layout=unknown
frame|media_type=audio|stream_index=0|key_frame=1|pts=N/A|pts_time=N/A|pkt_dts=N/A|pkt_dts_time=N/A|best_effort_timestamp=N/A|best_effort_timestamp_time=N/A|duration=4096|duration_time=0.092880|pkt_pos=59576|pkt_size=744|sample_fmt=fltp|nb_samples=2048|channels=2|channel_layout=unknown
packet|codec_type=audio|stream_index=0|pts=331776|pts_time=7.523265|dts=331776|dts_time=7.523265|duration=4096|duration_time=0.092880|size=744|pos=60320|flags=K__
frame|media_type=audio|stream_index=0|key_frame=1|pts=331776|pts_time=7.523265|pkt_dts=331776|pkt_dts_time=7.523265|best_effort_timestamp=331776|best_effort_timestamp_time=7.523265|duration=4096|duration_time=0.092880|pkt_pos=60320|pkt_size=744|sample_fmt=fltp|nb_samples=2048|channels=2|channel_layout=unknown
frame|media_type=audio|stream_index=0|key_frame=1|pts=N/A|pts_time=N/A|pkt_dts=N/A|pkt_dts_time=N/A|best_effort_timestamp=N/A|best_effort_timestamp_time=N/A|duration=4096|duration_time=0.092880|pkt_pos=60320|pkt_size=744|sample_fmt=fltp|nb_samples=2048|channels=2|channel_layout=unknown
packet|codec_type=audio|stream_index=0|pts=335872|pts_time=7.616145|dts=335872|dts_time=7.616145|duration=4096|duration_time=0.092880|size=744|pos=61064|flags=K__
frame|media_type=audio|stream_index=0|key_frame=1|pts=335872|pts_time=7.616145|pkt_dts=335872|pkt_dts_time=7.616145|best_effort_timestamp=335872|best_effort_timestamp_time=7.616145|duration=4096|duration_time=0.092880|pkt_pos=61064|pkt_size=744|sample_fmt=fltp|nb_samples=2048|channels=2|channel_layout=unknown
frame|media_type=audio|stream_index=0|key_frame=1|pts=N/A|pts_time=N/A|pkt_dts=N/A|pkt_dts_time=N/A|best_effort_timestamp=N/A|best_effort_timestamp_time=N/A|duration=4096|duration_time=0.092880|pkt_pos=61064|pkt_size=744|sample_fmt=fltp|nb_samples=2048|channels=2|channel_layout=unknown
packet|codec_type=audio|stream_index=0|pts=339968|pts_time=7.709025|dts=339968|dts_time=7.709025|duration=4096|duration_time=0.092880|size=744|pos=61808|flags=K__
frame|media_type=audio|stream_index=0|key_frame=1|pts=339968|pts_time=7.709025|pkt_dts=339968|pkt_dts_time=7.709025|best_effort_timestamp=339968|best_effort_timestamp_time=7.709025|duration=4096|duration_time=0.092880|pkt_pos=61808|pkt_size=744|sample_fmt=fltp|nb_samples=2048|channels=2|channel_layout=unknown
frame|media_type=audio|stream_index=0|key_frame=1|pts=N/A|pts_time=N/A|pkt_dts=N/A|pkt_dts_time=N/A|best_effort_timestamp=N/A|best_effort_timestamp_time=N/A|duration=4096|duration_time=0.092880|pkt_pos=61808|pkt_size=744|sample_fmt=fltp|nb_samples=2048|channels=2|channel_layout=unknown
packet|codec_type=audio|stream_index=0|pts=344064|pts_time=7.801905|dts=344064|dts_time=7.801905|duration=4096|duration_time=0.092880|size=744|pos=62552|flags=K__
frame|media_type=audio|stream_index=0|key_frame=1|pts=344064|pts_time=7.801905|pkt_dts=344064|pkt_dts_time=7.801905|best_effort_timestamp=344064|best_effort_timestamp_time=7.801905|duration=4096|duration_time=0.092880|pkt_pos=62552|pkt_size=744|sample_fmt=fltp|nb_samples=2048|channels=2|channel_layout=unknown
frame|media_type=audio|stream_index=0|key_frame=1|pts=N/A|pts_time=N/A|pkt_dts=N/A|pkt_dts_time=N/A|best_effort_timestamp=N/A|best_effort_timestamp_time=N/A|duration=4096|duration_time=0.092880|pkt_pos=62552|pkt_size=744|sample_fmt=fltp|nb_samples=2048|channels=2|channel_layout=unknown
packet|codec_type=audio|stream_index=0|pts=348160|pts_time=7.894785|dts=348160|dts_time=7.894785|duration=4096|duration_time=0.092880|size=744|pos=63296|flags=K__
frame|media_type=audio|stream_index=0|key_frame=1|pts=348160|pts_time=7.894785|pkt_dts=348160|pkt_dts_time=7.894785|best_effort_timestamp=348160|best_effort_timestamp_time=7.894785|duration=4096|duration_time=0.092880|pkt_pos=63296|pkt_size=744|sample_fmt=fltp|nb_samples=2048|channels=2|channel_layout=unknown
frame|media_type=audio|stream_index=0|key_frame=1|pts=N/A|pts_time=N/A|pkt_dts=N/A|pkt_dts_time=N/A|best_effort_timestamp=N/A|best_effort_timestamp_time=N/A|duration=4096|duration_time=0.092880|pkt_pos=63296|pkt_size=744|sample_fmt=fltp|nb_samples=2048|channels=2|channel_layout=unknown
packet|codec_type=audio|stream_index=0|pts=352256|pts_time=7.987664|dts=352256|dts_time=7.987664|duration=4096|duration_time=0.092880|size=744|pos=64040|flags=K__
frame|media_type=audio|stream_index=0|key_frame=1|pts=352256|pts_time=7.987664|pkt_dts=352256|pkt_dts_time=7.987664|best_effort_timestamp=352256|best_effort_timestamp_time=7.987664|duration=4096|duration_time=0.092880|pkt_pos=64040|pkt_size=744|sample_fmt=fltp|nb_samples=2048|channels=2|channel_layout=unknown
frame|media_type=audio|stream_index=0|key_frame=1|pts=N/A|pts_time=N/A|pkt_dts=N/A|pkt_dts_time=N/A|best_effort_timestamp=N/A|best_effort_timestamp_time=N/A|duration=4096|duration_time=0.092880|pkt_pos=64040|pkt_size=744|sample_fmt=fltp|nb_samples=2048|channels=2|channel_layout=unknown
packet|codec_type=audio|stream_index=0|pts=356352|pts_time=8.080544|dts=356352|dts_time=8.080544|duration=4096|duration_time=0.092880|size=744|pos=64784|flags=K__
frame|media_type=audio|stream_index=0|key_frame=1|pts=356352|pts_time=8.080544|pkt_dts=356352|pkt_dts_time=8.080544|best_effort_timestamp=356352|best_effort_timestamp_time=8.080544|duration=4096|duration_time=0.092880|pkt_pos=64784|pkt_size=744|sample_fmt=fltp|nb_samples=2048|channels=2|channel_layout=unknown
frame|media_type=audio|stream_index=0|key_frame=1|pts=N/A|pts_time=N/A|pkt_dts=N/A|pkt_dts_time=N/A|best_effort_timestamp=N/A|best_effort_timestamp_time=N/A|duration=4096|duration_time=0.092880|pkt_pos=64784|pkt_size=744|sample_fmt=fltp|nb_samples=2048|channels=2|channel_layout=unknown
packet|codec_type=audio|stream_index=0|pts=360448|pts_time=8.173424|dts=360448|dts_time=8.173424|duration=44|duration_time=0.000998|size=8|pos=65528|flags=K_C
frame|media_type=audio|stream_index=0|key_frame=1|pts=N/A|pts_time=N/A|pkt_dts=N/A|pkt_dts_time=N/A|best_effort_timestamp=N/A|best_effort_timestamp_time=N/A|duration=44|duration_time=0.000998|pkt_pos=65528|pkt_size=8|sample_fmt=fltp|nb_samples=2048|channels=2|channel_layout=unknown
